<svg viewBox="0 0 106 162" style="background-color:#ffffff00" xmlns="http://www.w3.org/2000/svg" width="106" height="162"><path d="M80.89.797S93.67 6.4 90.49 17.237c-3.174 10.818-57.945 131.056-57.945 131.056l-21.395-12.976L80.89.797z" fill="#c9c9c9"/><path d="M48.26 130.172c-3.71-13.28-17.263-20.986-30.272-17.215-13.01 3.77-20.547 17.592-16.836 30.87 3.71 13.28 17.264 20.987 30.272 17.216 13.01-3.77 20.547-17.592 16.836-30.87z" fill="#f9c700"/><path d="M38.165 133.53c-2.164-7.744-10.07-12.24-17.66-10.04-7.587 2.2-11.984 10.262-9.82 18.008 2.165 7.745 10.07 12.24 17.66 10.042 7.588-2.2 11.985-10.263 9.82-18.008z" fill="#fff"/><path d="M25.317.797S12.534 6.4 15.714 17.237C18.888 28.056 73.66 148.294 73.66 148.294l21.394-12.976L25.317.797z" fill="#dedede"/><path d="M57.946 130.172c3.71-13.28 17.264-20.986 30.272-17.215 13.01 3.77 20.547 17.592 16.836 30.87-3.71 13.28-17.264 20.987-30.272 17.216-13.01-3.77-20.547-17.592-16.836-30.87z" fill="#fc0"/><path d="M68.04 133.53c2.165-7.744 10.07-12.24 17.66-10.04 7.588 2.2 11.985 10.262 9.82 18.008-2.164 7.745-10.07 12.24-17.658 10.042-7.59-2.2-11.986-10.263-9.82-18.008z" fill="#fff"/><path d="M48 77.5c0-3.038 2.462-5.5 5.5-5.5s5.5 2.462 5.5 5.5-2.462 5.5-5.5 5.5-5.5-2.462-5.5-5.5z" fill="#a7a7a7"/></svg>