<svg viewBox="0 0 100 100" style="background-color:#ffffff00" xmlns="http://www.w3.org/2000/svg" width="100" height="100"><path d="M5.667 57.333L41 87l16-16-11-12H36L5.667 57.333z" fill="#a7a7a7"/><path d="M90 100L78.333 65 100 35l-8.667 34.667L90 100z" fill="#d4d4d4"/><path d="M14 37l23 22-11-28L0 16l14 21z" fill="#959595"/><path d="M29 1.333L56 9l44 26-58-14L29 1.333z" fill="#868686"/><path d="M41 20l10 22 29 24 20-31-59-15z" fill="#999"/><path d="M43 47l-2-26-15 10 11 28 16 2-10-14z" fill="#bebebe"/><path d="M42.667 20.333L29.333 1 .5 16.5 26 31l16.667-10.667z" fill="#b4b4b4"/><path d="M41.667 21L51 41l-9.667 7 .334-27z" fill="#d4d4d4"/><path d="M42 48l8-6 39.333 9.667L80 66.333 42 48z" fill="#bababa"/><path d="M42.333 48.333L78.667 65 54 74 42.333 48.333z" fill="#868686"/><path d="M79 65l7 22-34-13 27-9z" fill="#a7a7a7"/><path d="M52.667 74L85 86l5 13-49.667-12 12.334-13z" fill="#bebebe"/><path d="M29.333.667L68 0l30 34L29.333.667z" fill="#a7a7a7"/><path d="M10 31L5.333 58.333l32.667 1L10 31z" fill="#bababa"/></svg>