<?xml version="1.0" standalone="no"?><!-- Generator: Adobe Fireworks CS5, Export SVG Extension by Aaron Beall (http://fireworks.abeall.com) . Version: 0.6.1  --><!DOCTYPE svg PUBLIC "-//W3C//DTD SVG 1.1//EN" "http://www.w3.org/Graphics/SVG/1.1/DTD/svg11.dtd"><svg id="Untitled-Page%201" viewBox="0 0 100 100" style="background-color:#ffffff00" version="1.1"	xmlns="http://www.w3.org/2000/svg" xmlns:xlink="http://www.w3.org/1999/xlink" xml:space="preserve"	x="0px" y="0px" width="100px" height="100px">	<g id="Layer%201">		<path d="M 5.6667 57.3333 L 41 87 L 57 71 L 46 59 L 36 59 L 5.6667 57.3333 Z" fill="#a7a7a7"/>		<path d="M 90 100 L 78.3333 65 L 100 35 L 91.3333 69.6667 L 90 100 Z" fill="#d4d4d4"/>		<path d="M 14 37 L 37 59 L 26.3333 31 L 0 16 L 14 37 Z" fill="#959595"/>		<path d="M 29 1.3333 L 56 9 L 100 35 L 42 21 L 29 1.3333 Z" fill="#868686"/>		<path d="M 41 20 L 51 42 L 80 66 L 100 35 L 41 20 Z" fill="#999999"/>		<path d="M 43 47 L 42 20.6667 L 26 31 L 37 59 L 53 61 L 43 47 Z" fill="#bebebe"/>		<path d="M 42.6667 20.3333 L 29.3333 1 L 0.5 16.5 L 26.1667 31.8333 L 42.6667 20.3333 Z" fill="#b4b4b4"/>		<path d="M 41.8333 21.6667 L 52.8333 39.8333 L 42.3333 48 L 41.8333 21.6667 Z" fill="#d4d4d4"/>		<path d="M 42 48 L 53 39.6667 L 89.3333 51.6667 L 80 66.3333 L 42 48 Z" fill="#bababa"/>		<path d="M 42.3333 48.3333 L 79.8333 65.1667 L 54 74 L 42.3333 48.3333 Z" fill="#868686"/>		<path d="M 79 65 L 86 87 L 52 74 L 79 65 Z" fill="#a7a7a7"/>		<path d="M 52.6667 74 L 85 86 L 90 99 L 40.3333 87 L 52.6667 74 Z" fill="#bebebe"/>		<path d="M 29.3333 0.6667 L 68 0 L 98 34 L 29.3333 0.6667 Z" fill="#a7a7a7"/>		<path d="M 10 31 L 6 58.1667 L 38 59.3333 L 10 31 Z" fill="#bababa"/>	</g></svg>