<?xml version="1.0" standalone="no"?><!-- Generator: Adobe Fireworks CS5, Export SVG Extension by Aaron Beall (http://fireworks.abeall.com) . Version: 0.6.1  --><!DOCTYPE svg PUBLIC "-//W3C//DTD SVG 1.1//EN" "http://www.w3.org/Graphics/SVG/1.1/DTD/svg11.dtd"><svg id="Untitled-Page%201" viewBox="0 0 106 162" style="background-color:#ffffff00" version="1.1"	xmlns="http://www.w3.org/2000/svg" xmlns:xlink="http://www.w3.org/1999/xlink" xml:space="preserve"	x="0px" y="0px" width="106px" height="162px">	<g id="Layer%201">		<path d="M 80.8894 0.7974 C 80.8894 0.7974 93.672 6.3991 90.4917 17.2381 C 87.3178 28.0548 32.5466 148.2928 32.5466 148.2928 L 11.1521 135.3171 L 80.8894 0.7974 Z" fill="#c9c9c9"/>		<path id="Ellipse" d="M 48.2603 130.1719 C 44.5498 116.8933 30.9965 109.1861 17.9877 112.9572 C 4.9789 116.7283 -2.5587 130.5494 1.1518 143.8281 C 4.8623 157.1067 18.4156 164.8139 31.4244 161.0428 C 44.4332 157.2717 51.9708 143.4506 48.2603 130.1719 Z" fill="#f9c700"/>		<path id="Ellipse2" d="M 38.1654 133.5315 C 36.001 125.7856 28.0949 121.2898 20.5064 123.4896 C 12.9179 125.6894 8.521 133.7517 10.6854 141.4976 C 12.8499 149.2434 20.756 153.7393 28.3445 151.5395 C 35.933 149.3397 40.3299 141.2773 38.1654 133.5315 Z" fill="#ffffff"/>		<path d="M 25.3166 0.7974 C 25.3166 0.7974 12.534 6.3991 15.7144 17.2381 C 18.8882 28.0548 73.6594 148.2928 73.6594 148.2928 L 95.0539 135.3171 L 25.3166 0.7974 Z" fill="#dedede"/>		<path id="Ellipse3" d="M 57.9457 130.1719 C 61.6562 116.8933 75.2095 109.1861 88.2184 112.9572 C 101.2272 116.7283 108.7648 130.5494 105.0543 143.8281 C 101.3438 157.1067 87.7905 164.8139 74.7816 161.0428 C 61.7728 157.2717 54.2352 143.4506 57.9457 130.1719 Z" fill="#ffcc00"/>		<path id="Ellipse4" d="M 68.0406 133.5315 C 70.2051 125.7856 78.1112 121.2898 85.6996 123.4896 C 93.2881 125.6894 97.685 133.7517 95.5206 141.4976 C 93.3561 149.2434 85.45 153.7393 77.8616 151.5395 C 70.2731 149.3397 65.8762 141.2773 68.0406 133.5315 Z" fill="#ffffff"/>		<path id="Ellipse5" d="M 48 77.5 C 48 74.4624 50.4624 72 53.5 72 C 56.5376 72 59 74.4624 59 77.5 C 59 80.5376 56.5376 83 53.5 83 C 50.4624 83 48 80.5376 48 77.5 Z" fill="#a7a7a7"/>	</g></svg>